{"accessors" : [{"bufferView" : 0, "byteOffset" : 0, "componentType" : 5123, "count" : 36, "type" : "SCALAR", "max" : [29], "min" : [0]}, {"bufferView" : 1, "byteOffset" : 0, "componentType" : 5126, "count" : 30, "type" : "VEC3", "max" : [0.05530000105500221, -1.1503299474716187, 0.12913599610328674], "min" : [-0.05846399813890457, -1.4882140159606934, -0.12671099603176117], "name" : "POSITION"}, {"bufferView" : 1, "byteOffset" : 12, "componentType" : 5126, "count" : 30, "type" : "VEC2", "max" : [1, -0], "min" : [0, -1], "name" : "TEXCOORD_0"}, {"bufferView" : 1, "byteOffset" : 20, "componentType" : 5126, "count" : 30, "type" : "VEC3", "max" : [0.7361719012260437, 1.0000044107437134, 0.7767459750175476], "min" : [-0.7361185550689697, -1.0000044107437134, -0.7749984264373779], "name" : "NORMAL"}, {"bufferView" : 0, "byteOffset" : 72, "componentType" : 5123, "count" : 36, "type" : "SCALAR", "max" : [29], "min" : [0]}, {"bufferView" : 2, "byteOffset" : 0, "componentType" : 5126, "count" : 30, "type" : "VEC3", "max" : [0.05530000105500221, 1.400670051574707, 0.12913599610328674], "min" : [-0.05846399813890457, 1.0627859830856323, -0.12671099603176117], "name" : "POSITION"}, {"bufferView" : 2, "byteOffset" : 12, "componentType" : 5126, "count" : 30, "type" : "VEC2", "max" : [1, -0], "min" : [0, -1], "name" : "TEXCOORD_0"}, {"bufferView" : 2, "byteOffset" : 20, "componentType" : 5126, "count" : 30, "type" : "VEC3", "max" : [0.7361719012260437, 1.0000044107437134, 0.7767459750175476], "min" : [-0.7361185550689697, -1.0000044107437134, -0.7749984264373779], "name" : "NORMAL"}, {"bufferView" : 0, "byteOffset" : 144, "componentType" : 5123, "count" : 288, "type" : "SCALAR", "max" : [263], "min" : [0]}, {"bufferView" : 3, "byteOffset" : 0, "componentType" : 5126, "count" : 264, "type" : "VEC3", "max" : [0.0369499996304512, 1.1587200164794922, 0.038750000298023224], "min" : [-0.040550000965595245, 0.10672000050544739, -0.038750000298023224], "name" : "POSITION"}, {"bufferView" : 3, "byteOffset" : 12, "componentType" : 5126, "count" : 264, "type" : "VEC2", "max" : [1, -0], "min" : [0, -1], "name" : "TEXCOORD_0"}, {"bufferView" : 3, "byteOffset" : 20, "componentType" : 5126, "count" : 264, "type" : "VEC3", "max" : [1.0000044107437134, 1.0000044107437134, 1.0000044107437134], "min" : [-1.0000044107437134, -1.0000044107437134, -1.0000044107437134], "name" : "NORMAL"}, {"bufferView" : 0, "byteOffset" : 720, "componentType" : 5123, "count" : 288, "type" : "SCALAR", "max" : [263], "min" : [0]}, {"bufferView" : 4, "byteOffset" : 0, "componentType" : 5126, "count" : 264, "type" : "VEC3", "max" : [0.0369499996304512, -0.10797999799251556, 0.038750000298023224], "min" : [-0.040550000965595245, -1.159980058670044, -0.038750000298023224], "name" : "POSITION"}, {"bufferView" : 4, "byteOffset" : 12, "componentType" : 5126, "count" : 264, "type" : "VEC2", "max" : [1, -0], "min" : [0, -1], "name" : "TEXCOORD_0"}, {"bufferView" : 4, "byteOffset" : 20, "componentType" : 5126, "count" : 264, "type" : "VEC3", "max" : [1.0000044107437134, 1.0000044107437134, 1.0000044107437134], "min" : [-1.0000044107437134, -1.0000044107437134, -1.0000044107437134], "name" : "NORMAL"}, {"bufferView" : 0, "byteOffset" : 1296, "componentType" : 5123, "count" : 36, "type" : "SCALAR", "max" : [29], "min" : [0]}, {"bufferView" : 5, "byteOffset" : 0, "componentType" : 5126, "count" : 30, "type" : "VEC3", "max" : [0.12620000541210175, 0.11482000350952148, 0.125], "min" : [-0.12380000203847885, -0.13517999649047852, -0.125], "name" : "POSITION"}, {"bufferView" : 5, "byteOffset" : 12, "componentType" : 5126, "count" : 30, "type" : "VEC2", "max" : [1, -0], "min" : [0, -1], "name" : "TEXCOORD_0"}, {"bufferView" : 5, "byteOffset" : 20, "componentType" : 5126, "count" : 30, "type" : "VEC3", "max" : [1.0000044107437134, 1.0000044107437134, 1.0000044107437134], "min" : [-1.0000044107437134, -1.0000044107437134, -1.0000044107437134], "name" : "NORMAL"}], "asset" : {"generator" : "Aspose.3D 22.12", "version" : "2.0"}, "buffers" : [{"uri" : "data:application/octet-stream;base64,", "byteLength" : 23280}], "bufferViews" : [{"buffer" : 0, "byteOffset" : 0, "byteLength" : 1368, "target" : 34963}, {"buffer" : 0, "byteOffset" : 1372, "byteLength" : 1152, "byteStride" : 32, "target" : 34962}, {"buffer" : 0, "byteOffset" : 2528, "byteLength" : 1152, "byteStride" : 32, "target" : 34962}, {"buffer" : 0, "byteOffset" : 3684, "byteLength" : 9216, "byteStride" : 32, "target" : 34962}, {"buffer" : 0, "byteOffset" : 12904, "byteLength" : 9216, "byteStride" : 32, "target" : 34962}, {"buffer" : 0, "byteOffset" : 22124, "byteLength" : 1152, "byteStride" : 32, "target" : 34962}], "images" : [{"uri" : "data:image/jpeg;base64,"}, {"uri" : "data:image/jpeg;base64,"}, {"uri" : "data:image/jpeg;base64,"}], "materials" : [{"name" : "metal3Material", "pbrMetallicRoughness" : {"baseColorFactor" : [0.690196, 0.690196, 0.690196, 1], "baseColorTexture" : {"index" : 0, "texCoord" : 0}, "metallicFactor" : 0, "roughnessFactor" : 0}, "emissiveFactor" : [0, 0, 0], "alphaMode" : "OPAQUE", "doubleSided" : false}, {"name" : "metal3Material", "pbrMetallicRoughness" : {"baseColorFactor" : [0.690196, 0.690196, 0.690196, 1], "baseColorTexture" : {"index" : 0, "texCoord" : 0}, "metallicFactor" : 0, "roughnessFactor" : 0}, "emissiveFactor" : [0, 0, 0], "alphaMode" : "OPAQUE", "doubleSided" : false}, {"name" : "metalMaterial", "pbrMetallicRoughness" : {"baseColorFactor" : [0.690196, 0.690196, 0.690196, 1], "baseColorTexture" : {"index" : 1, "texCoord" : 0}, "metallicFactor" : 0, "roughnessFactor" : 0}, "emissiveFactor" : [0, 0, 0], "alphaMode" : "OPAQUE", "doubleSided" : false}, {"name" : "metalMaterial", "pbrMetallicRoughness" : {"baseColorFactor" : [0.690196, 0.690196, 0.690196, 1], "baseColorTexture" : {"index" : 1, "texCoord" : 0}, "metallicFactor" : 0, "roughnessFactor" : 0}, "emissiveFactor" : [0, 0, 0], "alphaMode" : "OPAQUE", "doubleSided" : false}, {"name" : "bmMaterial", "pbrMetallicRoughness" : {"baseColorFactor" : [0.690196, 0.690196, 0.690196, 1], "baseColorTexture" : {"index" : 2, "texCoord" : 0}, "metallicFactor" : 0, "roughnessFactor" : 0}, "emissiveFactor" : [0, 0, 0], "alphaMode" : "OPAQUE", "doubleSided" : false}], "meshes" : [{"primitives" : [{"attributes" : {"POSITION" : 1, "TEXCOORD_0" : 2, "NORMAL" : 3}, "indices" : 0, "material" : 0, "mode" : 4}], "name" : ""}, {"primitives" : [{"attributes" : {"POSITION" : 5, "TEXCOORD_0" : 6, "NORMAL" : 7}, "indices" : 4, "material" : 1, "mode" : 4}], "name" : ""}, {"primitives" : [{"attributes" : {"POSITION" : 9, "TEXCOORD_0" : 10, "NORMAL" : 11}, "indices" : 8, "material" : 2, "mode" : 4}], "name" : ""}, {"primitives" : [{"attributes" : {"POSITION" : 13, "TEXCOORD_0" : 14, "NORMAL" : 15}, "indices" : 12, "material" : 3, "mode" : 4}], "name" : ""}, {"primitives" : [{"attributes" : {"POSITION" : 17, "TEXCOORD_0" : 18, "NORMAL" : 19}, "indices" : 16, "material" : 4, "mode" : 4}], "name" : ""}], "nodes" : [{"mesh" : 0, "name" : "Box24"}, {"mesh" : 1, "name" : "Box26"}, {"mesh" : 2, "name" : "Cylinder1"}, {"mesh" : 3, "name" : "Cylinder"}, {"mesh" : 4, "name" : "Box25"}], "samplers" : [{"magFilter" : 9729, "minFilter" : 9729, "wrapS" : 10497, "wrapT" : 10497}, {"magFilter" : 9729, "minFilter" : 9729, "wrapS" : 10497, "wrapT" : 10497}, {"magFilter" : 9729, "minFilter" : 9729, "wrapS" : 10497, "wrapT" : 10497}], "scene" : 0, "scenes" : [{"nodes" : [0, 1, 2, 3, 4]}], "textures" : [{"sampler" : 0, "source" : 0, "name" : ""}, {"sampler" : 1, "source" : 1, "name" : ""}, {"sampler" : 2, "source" : 2, "name" : ""}]}