# Blender v2.74 (sub 0) OBJ File: ''
# www.blender.org
mtllib base.mtl
o Box24
v 0.055300 -1.150330 -0.000000
v 0.001200 -1.150330 -0.126711
v 0.002596 -1.488214 0.118928
v 0.048026 -1.488214 -0.004596
v -0.058464 -1.150330 0.000000
v 0.001200 -1.150330 0.129136
v 0.001505 -1.488214 -0.122487
v -0.047870 -1.488214 -0.002725
vt 0.000000 1.000000
vt 0.000000 0.000000
vt 1.000000 0.000000
vt 1.000000 1.000000
vn 0.691400 -0.015900 -0.722300
vn 0.726800 -0.008300 -0.686800
vn 0.689300 -0.134800 -0.711800
vn 0.724500 -0.127400 -0.677400
vn -0.690100 -0.024400 0.723300
vn -0.728600 -0.011900 0.684800
vn -0.687000 -0.148400 0.711400
vn -0.724500 -0.141400 0.674600
vn 0.000000 1.000000 -0.000000
vn 0.000000 -1.000000 -0.000000
vn 0.736200 -0.046900 0.675200
vn 0.629500 0.018900 0.776700
vn 0.734700 -0.064300 0.675400
vn 0.632900 -0.080700 0.770000
vn -0.736100 -0.018100 -0.676600
vn -0.631900 0.009500 -0.775000
vn -0.731700 -0.070600 -0.678000
vn -0.638400 -0.070300 -0.766500
usemtl metal3Material
s 1
f 1/1/1 3/2/2 4/3/3 2/4/4
f 5/1/5 7/2/6 8/3/7 6/4/8
f 5/1/9 6/2/9 1/3/9 2/4/9
f 8/1/10 7/2/10 4/3/10 3/4/10
f 6/1/11 8/2/12 3/3/13 1/4/14
f 2/1/15 4/2/16 7/3/17 5/4/18
o Box26
v 0.055300 1.400670 -0.000000
v 0.001200 1.400670 -0.126711
v 0.002596 1.062786 0.118928
v 0.048026 1.062786 -0.004596
v -0.058464 1.400670 0.000000
v 0.001200 1.400670 0.129136
v 0.001505 1.062786 -0.122487
v -0.047870 1.062786 -0.002725
vt 0.000000 1.000000
vt 0.000000 0.000000
vt 1.000000 0.000000
vt 1.000000 1.000000
vn 0.691400 -0.015900 -0.722300
vn 0.726800 -0.008300 -0.686800
vn 0.689300 -0.134800 -0.711800
vn 0.724500 -0.127400 -0.677400
vn -0.690100 -0.024400 0.723300
vn -0.728600 -0.011900 0.684800
vn -0.687000 -0.148400 0.711400
vn -0.724500 -0.141400 0.674600
vn 0.000000 1.000000 0.000000
vn 0.000000 -1.000000 0.000000
vn 0.736200 -0.046900 0.675200
vn 0.629500 0.018900 0.776700
vn 0.734700 -0.064300 0.675400
vn 0.632900 -0.080700 0.770000
vn -0.736100 -0.018100 -0.676600
vn -0.631900 0.009500 -0.775000
vn -0.731700 -0.070600 -0.678000
vn -0.638400 -0.070300 -0.766500
usemtl metal3Material
s 1
f 9/5/19 11/6/20 12/7/21 10/8/22
f 13/5/23 15/6/24 16/7/25 14/8/26
f 13/5/27 14/6/27 9/7/27 10/8/27
f 16/5/28 15/6/28 12/7/28 11/8/28
f 14/5/29 16/6/30 11/7/31 9/8/32
f 10/5/33 12/6/34 15/7/35 13/8/36
o Cylinder1
v -0.001800 1.158720 0.038750
v 0.008228 1.158720 0.037432
v 0.017575 1.158720 0.033558
v 0.025604 1.158720 0.027404
v 0.031758 1.158720 0.019375
v 0.035632 1.158720 0.010029
v 0.036950 1.158720 0.000000
v 0.035632 1.158720 -0.010029
v 0.031758 1.158720 -0.019375
v 0.025604 1.158720 -0.027404
v 0.017575 1.158720 -0.033558
v 0.008228 1.158720 -0.037432
v -0.001800 1.158720 -0.038750
v -0.011829 1.158720 -0.037432
v -0.021175 1.158720 -0.033558
v -0.029204 1.158720 -0.027404
v -0.035358 1.158720 -0.019375
v -0.039232 1.158720 -0.010029
v -0.040550 1.158720 0.000000
v -0.039232 1.158720 0.010029
v -0.035358 1.158720 0.019375
v -0.029204 1.158720 0.027404
v -0.021175 1.158720 0.033558
v -0.011829 1.158720 0.037432
v -0.001800 0.106720 0.038750
v 0.008228 0.106720 0.037432
v 0.017575 0.106720 0.033558
v 0.025604 0.106720 0.027404
v 0.031758 0.106720 0.019375
v 0.035632 0.106720 0.010029
v 0.036950 0.106720 0.000000
v 0.035632 0.106720 -0.010029
v 0.031758 0.106720 -0.019375
v 0.025604 0.106720 -0.027404
v 0.017575 0.106720 -0.033558
v 0.008228 0.106720 -0.037432
v -0.001800 0.106720 -0.038750
v -0.011829 0.106720 -0.037432
v -0.021175 0.106720 -0.033558
v -0.029204 0.106720 -0.027404
v -0.035358 0.106720 -0.019375
v -0.039232 0.106720 -0.010029
v -0.040550 0.106720 0.000000
v -0.039232 0.106720 0.010029
v -0.035358 0.106720 0.019375
v -0.029204 0.106720 0.027404
v -0.021175 0.106720 0.033558
v -0.011829 0.106720 0.037432
v -0.001800 1.158720 0.000000
v -0.001800 0.106720 0.000000
vt 0.000000 1.000000
vt 0.000000 0.000000
vt 0.041667 0.000000
vt 0.041667 1.000000
vt 0.083333 0.000000
vt 0.083333 1.000000
vt 0.125000 0.000000
vt 0.125000 1.000000
vt 0.166667 0.000000
vt 0.166667 1.000000
vt 0.208333 0.000000
vt 0.208333 1.000000
vt 0.250000 0.000000
vt 0.250000 1.000000
vt 0.291667 0.000000
vt 0.291667 1.000000
vt 0.333333 0.000000
vt 0.333333 1.000000
vt 0.375000 0.000000
vt 0.375000 1.000000
vt 0.416667 0.000000
vt 0.416667 1.000000
vt 0.458333 0.000000
vt 0.458333 1.000000
vt 0.500000 0.000000
vt 0.500000 1.000000
vt 0.541667 0.000000
vt 0.541667 1.000000
vt 0.583333 0.000000
vt 0.583333 1.000000
vt 0.625000 0.000000
vt 0.625000 1.000000
vt 0.666667 0.000000
vt 0.666667 1.000000
vt 0.708333 0.000000
vt 0.708333 1.000000
vt 0.750000 0.000000
vt 0.750000 1.000000
vt 0.791667 0.000000
vt 0.791667 1.000000
vt 0.833333 0.000000
vt 0.833333 1.000000
vt 0.875000 0.000000
vt 0.875000 1.000000
vt 0.916667 0.000000
vt 0.916667 1.000000
vt 0.958333 0.000000
vt 0.958333 1.000000
vt 1.000000 0.000000
vt 1.000000 1.000000
vn 0.000000 0.000000 1.000000
vn 0.258800 0.000000 0.965900
vn 0.499900 0.000000 0.866100
vn 0.707100 0.000000 0.707100
vn 0.866100 0.000000 0.499900
vn 0.965900 0.000000 0.258800
vn 1.000000 0.000000 0.000000
vn 0.965900 0.000000 -0.258800
vn 0.866100 0.000000 -0.499900
vn 0.707100 0.000000 -0.707100
vn 0.499900 0.000000 -0.866100
vn 0.258800 0.000000 -0.965900
vn 0.000000 0.000000 -1.000000
vn -0.258800 0.000000 -0.965900
vn -0.499900 0.000000 -0.866100
vn -0.707100 0.000000 -0.707100
vn -0.866100 0.000000 -0.499900
vn -0.965900 0.000000 -0.258800
vn -1.000000 0.000000 0.000000
vn -0.965900 0.000000 0.258800
vn -0.866100 0.000000 0.499900
vn -0.707100 0.000000 0.707100
vn -0.499900 0.000000 0.866100
vn -0.258800 0.000000 0.965900
vn 0.000000 1.000000 0.000000
vn 0.000000 -1.000000 -0.000000
usemtl metalMaterial
s 1
f 17/9/37 41/10/37 42/11/38 18/12/38
f 18/12/38 42/11/38 43/13/39 19/14/39
f 19/14/39 43/13/39 44/15/40 20/16/40
f 20/16/40 44/15/40 45/17/41 21/18/41
f 21/18/41 45/17/41 46/19/42 22/20/42
f 22/20/42 46/19/42 47/21/43 23/22/43
f 23/22/43 47/21/43 48/23/44 24/24/44
f 24/24/44 48/23/44 49/25/45 25/26/45
f 25/26/45 49/25/45 50/27/46 26/28/46
f 26/28/46 50/27/46 51/29/47 27/30/47
f 27/30/47 51/29/47 52/31/48 28/32/48
f 28/32/48 52/31/48 53/33/49 29/34/49
f 29/34/49 53/33/49 54/35/50 30/36/50
f 30/36/50 54/35/50 55/37/51 31/38/51
f 31/38/51 55/37/51 56/39/52 32/40/52
f 32/40/52 56/39/52 57/41/53 33/42/53
f 33/42/53 57/41/53 58/43/54 34/44/54
f 34/44/54 58/43/54 59/45/55 35/46/55
f 35/46/55 59/45/55 60/47/56 36/48/56
f 36/48/56 60/47/56 61/49/57 37/50/57
f 37/50/57 61/49/57 62/51/58 38/52/58
f 38/52/58 62/51/58 63/53/59 39/54/59
f 39/54/59 63/53/59 64/55/60 40/56/60
f 40/56/60 64/55/60 41/57/37 17/58/37
f 17/9/61 18/12/61 65/10/61
f 18/12/61 19/14/61 65/10/61
f 19/14/61 20/16/61 65/10/61
f 20/16/61 21/18/61 65/10/61
f 21/18/61 22/20/61 65/10/61
f 22/20/61 23/22/61 65/10/61
f 23/22/61 24/24/61 65/10/61
f 24/24/61 25/26/61 65/10/61
f 25/26/61 26/28/61 65/10/61
f 26/28/61 27/30/61 65/10/61
f 27/30/61 28/32/61 65/10/61
f 28/32/61 29/34/61 65/10/61
f 29/34/61 30/36/61 65/10/61
f 30/36/61 31/38/61 65/10/61
f 31/38/61 32/40/61 65/10/61
f 32/40/61 33/42/61 65/10/61
f 33/42/61 34/44/61 65/10/61
f 34/44/61 35/46/61 65/10/61
f 35/46/61 36/48/61 65/10/61
f 36/48/61 37/50/61 65/10/61
f 37/50/61 38/52/61 65/10/61
f 38/52/61 39/54/61 65/10/61
f 39/54/61 40/56/61 65/10/61
f 40/56/61 17/58/61 65/10/61
f 42/11/62 41/10/62 66/9/62
f 43/13/62 42/11/62 66/9/62
f 44/15/62 43/13/62 66/9/62
f 45/17/62 44/15/62 66/9/62
f 46/19/62 45/17/62 66/9/62
f 47/21/62 46/19/62 66/9/62
f 48/23/62 47/21/62 66/9/62
f 49/25/62 48/23/62 66/9/62
f 50/27/62 49/25/62 66/9/62
f 51/29/62 50/27/62 66/9/62
f 52/31/62 51/29/62 66/9/62
f 53/33/62 52/31/62 66/9/62
f 54/35/62 53/33/62 66/9/62
f 55/37/62 54/35/62 66/9/62
f 56/39/62 55/37/62 66/9/62
f 57/41/62 56/39/62 66/9/62
f 58/43/62 57/41/62 66/9/62
f 59/45/62 58/43/62 66/9/62
f 60/47/62 59/45/62 66/9/62
f 61/49/62 60/47/62 66/9/62
f 62/51/62 61/49/62 66/9/62
f 63/53/62 62/51/62 66/9/62
f 64/55/62 63/53/62 66/9/62
f 41/57/62 64/55/62 66/9/62
o Cylinder
v -0.001800 -0.107980 0.038750
v 0.008228 -0.107980 0.037432
v 0.017575 -0.107980 0.033558
v 0.025604 -0.107980 0.027404
v 0.031758 -0.107980 0.019375
v 0.035632 -0.107980 0.010029
v 0.036950 -0.107980 0.000000
v 0.035632 -0.107980 -0.010029
v 0.031758 -0.107980 -0.019375
v 0.025604 -0.107980 -0.027404
v 0.017575 -0.107980 -0.033558
v 0.008228 -0.107980 -0.037432
v -0.001800 -0.107980 -0.038750
v -0.011829 -0.107980 -0.037432
v -0.021175 -0.107980 -0.033558
v -0.029204 -0.107980 -0.027404
v -0.035358 -0.107980 -0.019375
v -0.039232 -0.107980 -0.010029
v -0.040550 -0.107980 0.000000
v -0.039232 -0.107980 0.010029
v -0.035358 -0.107980 0.019375
v -0.029204 -0.107980 0.027404
v -0.021175 -0.107980 0.033558
v -0.011829 -0.107980 0.037432
v -0.001800 -1.159980 0.038750
v 0.008228 -1.159980 0.037432
v 0.017575 -1.159980 0.033558
v 0.025604 -1.159980 0.027404
v 0.031758 -1.159980 0.019375
v 0.035632 -1.159980 0.010029
v 0.036950 -1.159980 0.000000
v 0.035632 -1.159980 -0.010029
v 0.031758 -1.159980 -0.019375
v 0.025604 -1.159980 -0.027404
v 0.017575 -1.159980 -0.033558
v 0.008228 -1.159980 -0.037432
v -0.001800 -1.159980 -0.038750
v -0.011829 -1.159980 -0.037432
v -0.021175 -1.159980 -0.033558
v -0.029204 -1.159980 -0.027404
v -0.035358 -1.159980 -0.019375
v -0.039232 -1.159980 -0.010029
v -0.040550 -1.159980 0.000000
v -0.039232 -1.159980 0.010029
v -0.035358 -1.159980 0.019375
v -0.029204 -1.159980 0.027404
v -0.021175 -1.159980 0.033558
v -0.011829 -1.159980 0.037432
v -0.001800 -0.107980 0.000000
v -0.001800 -1.159980 0.000000
vt 0.000000 1.000000
vt 0.000000 0.000000
vt 0.041667 0.000000
vt 0.041667 1.000000
vt 0.083333 0.000000
vt 0.083333 1.000000
vt 0.125000 0.000000
vt 0.125000 1.000000
vt 0.166667 0.000000
vt 0.166667 1.000000
vt 0.208333 0.000000
vt 0.208333 1.000000
vt 0.250000 0.000000
vt 0.250000 1.000000
vt 0.291667 0.000000
vt 0.291667 1.000000
vt 0.333333 0.000000
vt 0.333333 1.000000
vt 0.375000 0.000000
vt 0.375000 1.000000
vt 0.416667 0.000000
vt 0.416667 1.000000
vt 0.458333 0.000000
vt 0.458333 1.000000
vt 0.500000 0.000000
vt 0.500000 1.000000
vt 0.541667 0.000000
vt 0.541667 1.000000
vt 0.583333 0.000000
vt 0.583333 1.000000
vt 0.625000 0.000000
vt 0.625000 1.000000
vt 0.666667 0.000000
vt 0.666667 1.000000
vt 0.708333 0.000000
vt 0.708333 1.000000
vt 0.750000 0.000000
vt 0.750000 1.000000
vt 0.791667 0.000000
vt 0.791667 1.000000
vt 0.833333 0.000000
vt 0.833333 1.000000
vt 0.875000 0.000000
vt 0.875000 1.000000
vt 0.916667 0.000000
vt 0.916667 1.000000
vt 0.958333 0.000000
vt 0.958333 1.000000
vt 1.000000 0.000000
vt 1.000000 1.000000
vn 0.000000 0.000000 1.000000
vn 0.258800 0.000000 0.965900
vn 0.499900 0.000000 0.866100
vn 0.707100 0.000000 0.707100
vn 0.866100 0.000000 0.499900
vn 0.965900 0.000000 0.258800
vn 1.000000 0.000000 0.000000
vn 0.965900 0.000000 -0.258800
vn 0.866100 0.000000 -0.499900
vn 0.707100 0.000000 -0.707100
vn 0.499900 0.000000 -0.866100
vn 0.258800 0.000000 -0.965900
vn 0.000000 0.000000 -1.000000
vn -0.258800 0.000000 -0.965900
vn -0.499900 0.000000 -0.866100
vn -0.707100 0.000000 -0.707100
vn -0.866100 0.000000 -0.499900
vn -0.965900 0.000000 -0.258800
vn -1.000000 0.000000 0.000000
vn -0.965900 0.000000 0.258800
vn -0.866100 0.000000 0.499900
vn -0.707100 0.000000 0.707100
vn -0.499900 0.000000 0.866100
vn -0.258800 0.000000 0.965900
vn 0.000000 1.000000 0.000000
vn 0.000000 -1.000000 0.000000
usemtl metalMaterial
s 1
f 67/59/63 91/60/63 92/61/64 68/62/64
f 68/62/64 92/61/64 93/63/65 69/64/65
f 69/64/65 93/63/65 94/65/66 70/66/66
f 70/66/66 94/65/66 95/67/67 71/68/67
f 71/68/67 95/67/67 96/69/68 72/70/68
f 72/70/68 96/69/68 97/71/69 73/72/69
f 73/72/69 97/71/69 98/73/70 74/74/70
f 74/74/70 98/73/70 99/75/71 75/76/71
f 75/76/71 99/75/71 100/77/72 76/78/72
f 76/78/72 100/77/72 101/79/73 77/80/73
f 77/80/73 101/79/73 102/81/74 78/82/74
f 78/82/74 102/81/74 103/83/75 79/84/75
f 79/84/75 103/83/75 104/85/76 80/86/76
f 80/86/76 104/85/76 105/87/77 81/88/77
f 81/88/77 105/87/77 106/89/78 82/90/78
f 82/90/78 106/89/78 107/91/79 83/92/79
f 83/92/79 107/91/79 108/93/80 84/94/80
f 84/94/80 108/93/80 109/95/81 85/96/81
f 85/96/81 109/95/81 110/97/82 86/98/82
f 86/98/82 110/97/82 111/99/83 87/100/83
f 87/100/83 111/99/83 112/101/84 88/102/84
f 88/102/84 112/101/84 113/103/85 89/104/85
f 89/104/85 113/103/85 114/105/86 90/106/86
f 90/106/86 114/105/86 91/107/63 67/108/63
f 67/59/87 68/62/87 115/60/87
f 68/62/87 69/64/87 115/60/87
f 69/64/87 70/66/87 115/60/87
f 70/66/87 71/68/87 115/60/87
f 71/68/87 72/70/87 115/60/87
f 72/70/87 73/72/87 115/60/87
f 73/72/87 74/74/87 115/60/87
f 74/74/87 75/76/87 115/60/87
f 75/76/87 76/78/87 115/60/87
f 76/78/87 77/80/87 115/60/87
f 77/80/87 78/82/87 115/60/87
f 78/82/87 79/84/87 115/60/87
f 79/84/87 80/86/87 115/60/87
f 80/86/87 81/88/87 115/60/87
f 81/88/87 82/90/87 115/60/87
f 82/90/87 83/92/87 115/60/87
f 83/92/87 84/94/87 115/60/87
f 84/94/87 85/96/87 115/60/87
f 85/96/87 86/98/87 115/60/87
f 86/98/87 87/100/87 115/60/87
f 87/100/87 88/102/87 115/60/87
f 88/102/87 89/104/87 115/60/87
f 89/104/87 90/106/87 115/60/87
f 90/106/87 67/108/87 115/60/87
f 92/61/88 91/60/88 116/59/88
f 93/63/88 92/61/88 116/59/88
f 94/65/88 93/63/88 116/59/88
f 95/67/88 94/65/88 116/59/88
f 96/69/88 95/67/88 116/59/88
f 97/71/88 96/69/88 116/59/88
f 98/73/88 97/71/88 116/59/88
f 99/75/88 98/73/88 116/59/88
f 100/77/88 99/75/88 116/59/88
f 101/79/88 100/77/88 116/59/88
f 102/81/88 101/79/88 116/59/88
f 103/83/88 102/81/88 116/59/88
f 104/85/88 103/83/88 116/59/88
f 105/87/88 104/85/88 116/59/88
f 106/89/88 105/87/88 116/59/88
f 107/91/88 106/89/88 116/59/88
f 108/93/88 107/91/88 116/59/88
f 109/95/88 108/93/88 116/59/88
f 110/97/88 109/95/88 116/59/88
f 111/99/88 110/97/88 116/59/88
f 112/101/88 111/99/88 116/59/88
f 113/103/88 112/101/88 116/59/88
f 114/105/88 113/103/88 116/59/88
f 91/107/88 114/105/88 116/59/88
o Box25
v 0.126200 0.114820 0.125000
v 0.126200 0.114820 -0.125000
v 0.126200 -0.135180 0.125000
v 0.126200 -0.135180 -0.125000
v -0.123800 0.114820 -0.125000
v -0.123800 0.114820 0.125000
v -0.123800 -0.135180 -0.125000
v -0.123800 -0.135180 0.125000
vt 0.000000 1.000000
vt 0.000000 0.000000
vt 1.000000 0.000000
vt 1.000000 1.000000
vn 1.000000 0.000000 0.000000
vn -1.000000 0.000000 0.000000
vn 0.000000 1.000000 0.000000
vn 0.000000 -1.000000 0.000000
vn 0.000000 0.000000 1.000000
vn 0.000000 0.000000 -1.000000
usemtl bmMaterial
s 1
f 117/109/89 119/110/89 120/111/89 118/112/89
f 121/109/90 123/110/90 124/111/90 122/112/90
f 121/109/91 122/110/91 117/111/91 118/112/91
f 124/109/92 123/110/92 120/111/92 119/112/92
f 122/109/93 124/110/93 119/111/93 117/112/93
f 118/109/94 120/110/94 123/111/94 121/112/94
